<svg width="211" height="49" viewBox="0 0 211 49" fill="none" xmlns="http://www.w3.org/2000/svg">
    <g clip-path="url(#clip0_10350_8922)">
        <path d="M52.6858 25.4104C51.7741 17.4732 45.748 11.3414 38.4427 11.3414C38.0178 11.3414 37.5976 11.3672 37.1819 11.406C34.2515 9.02452 30.6529 7.61426 26.7602 7.61426C19.1381 7.61426 12.6366 13.0048 10.0989 20.5804C5.04883 21.0428 1.07812 25.7979 1.07812 31.5965C1.07812 37.2398 7.37573 39.6525 13.0191 39.6525H53.8452C56.7603 39.6525 59.6443 37.9468 59.6443 35.0317C59.6443 30.2921 56.6588 26.3351 52.6881 25.4104H52.6858Z" fill="#0E79A1"></path>
        <path d="M52.82 25.5362C51.9083 17.5989 45.8822 11.4671 38.5769 11.4671C38.152 11.4671 37.7318 11.4929 37.3161 11.5317C34.3857 9.15025 30.7871 7.73999 26.8944 7.73999C19.2723 7.73999 12.8107 13.6196 10.2731 21.1952C5.22299 21.6575 1.12109 28.4835 1.12109 32.5948C1.12109 37.7568 7.23724 39.7783 12.3992 39.7783H53.9795C56.8946 39.7783 59.7785 38.0726 59.7785 35.1575C59.7785 30.4178 56.793 26.4608 52.8223 25.5362H52.82Z" fill="#0E79A1"></path>
        <path d="M51.6989 24.1741C50.7872 16.2369 44.7611 10.1051 37.4558 10.1051C37.031 10.1051 36.6107 10.1309 36.195 10.1696C33.2646 7.78819 29.666 6.37793 25.7734 6.37793C18.1512 6.37793 11.3161 12.6313 8.77841 20.2069C3.7355 21.3282 0 27.1214 0 31.2327C0 36.3947 6.11614 38.4162 11.2781 38.4162H52.8584C55.7735 38.4162 58.6574 36.7105 58.6574 33.7954C58.6574 29.0558 55.6719 25.0988 51.7012 24.1741H51.6989Z" fill="#50CFFF"></path>
        <g filter="url(#filter0_dd_10350_8922)">
            <path d="M26.4648 15.627C26.4648 14.9604 27.0053 14.4199 27.672 14.4199H30.1498C30.4752 14.4199 30.7868 14.5513 31.014 14.7842L31.9288 15.7222C32.1486 15.9477 32.2717 16.2501 32.2717 16.565V34.793C32.2717 35.4597 31.7312 36.0001 31.0646 36.0001H28.6331C28.3281 36.0001 28.0343 35.8846 27.811 35.6769L26.4648 34.4249L26.4648 16.0739L26.4648 15.627Z" fill="white"></path>
        </g>
        <g filter="url(#filter1_dd_10350_8922)">
            <path d="M15.6797 19.1136C15.6797 18.4469 16.2201 17.9065 16.8868 17.9065H19.9476C20.6143 17.9065 21.1547 18.4469 21.1547 19.1136V19.811V31.1415C21.1547 31.8082 20.6143 32.3486 19.9476 32.3486H16.8868C16.2201 32.3486 15.6797 31.8082 15.6797 31.1415V19.1136Z" fill="white"></path>
        </g>
        <g filter="url(#filter2_dd_10350_8922)">
            <path d="M37.5898 19.1136C37.5898 18.4469 38.1303 17.9065 38.797 17.9065H41.8578C42.5244 17.9065 43.0649 18.4469 43.0649 19.1136V19.811V31.1415C43.0649 31.8082 42.5244 32.3486 41.8578 32.3486H38.797C38.1303 32.3486 37.5898 31.8082 37.5898 31.1415V19.1136Z" fill="white"></path>
        </g>
        <path d="M155.307 21.6897V33.7745H152.707V18.6929H155.167L155.307 21.6897ZM154.776 25.6622L153.574 25.6204C153.583 24.5889 153.718 23.6365 153.979 22.763C154.24 21.8802 154.627 21.1136 155.139 20.4631C155.652 19.8126 156.29 19.3108 157.054 18.9577C157.818 18.5953 158.704 18.4141 159.71 18.4141C160.418 18.4141 161.071 18.5163 161.667 18.7208C162.264 18.9159 162.781 19.2272 163.219 19.6547C163.657 20.0821 163.997 20.6304 164.239 21.2994C164.481 21.9685 164.603 22.7769 164.603 23.7247V33.7745H162.017V23.8502C162.017 23.0603 161.882 22.4284 161.611 21.9545C161.35 21.4806 160.978 21.1368 160.493 20.9231C160.008 20.7001 159.44 20.5885 158.788 20.5885C158.023 20.5885 157.385 20.7233 156.873 20.9928C156.36 21.2622 155.95 21.6339 155.642 22.1079C155.335 22.5818 155.111 23.1254 154.972 23.7387C154.841 24.3427 154.776 24.9839 154.776 25.6622ZM164.575 24.2405L162.841 24.7701C162.851 23.9431 162.986 23.1486 163.247 22.3866C163.517 21.6247 163.904 20.9463 164.407 20.3516C164.919 19.7569 165.549 19.2876 166.294 18.9438C167.04 18.5907 167.892 18.4141 168.852 18.4141C169.663 18.4141 170.38 18.521 171.005 18.7347C171.638 18.9484 172.17 19.2783 172.598 19.7244C173.036 20.1611 173.367 20.7233 173.591 21.4109C173.814 22.0986 173.926 22.9163 173.926 23.8641V33.7745H171.326V23.8363C171.326 22.9906 171.191 22.3355 170.921 21.8709C170.66 21.397 170.287 21.0671 169.803 20.8813C169.327 20.6861 168.759 20.5885 168.097 20.5885C167.529 20.5885 167.026 20.6861 166.588 20.8813C166.15 21.0764 165.781 21.3459 165.483 21.6897C165.185 22.0242 164.957 22.4099 164.798 22.8466C164.649 23.2834 164.575 23.748 164.575 24.2405Z" fill="#222222"></path>
        <path d="M179.791 18.6929V33.7745H177.191V18.6929H179.791ZM176.995 14.6925C176.995 14.2743 177.121 13.9212 177.373 13.6332C177.634 13.3451 178.016 13.2011 178.519 13.2011C179.013 13.2011 179.39 13.3451 179.651 13.6332C179.921 13.9212 180.057 14.2743 180.057 14.6925C180.057 15.0921 179.921 15.4359 179.651 15.724C179.39 16.0027 179.013 16.1421 178.519 16.1421C178.016 16.1421 177.634 16.0027 177.373 15.724C177.121 15.4359 176.995 15.0921 176.995 14.6925Z" fill="#222222"></path>
        <path d="M185.67 21.9127V33.7745H183.084V18.6929H185.53L185.67 21.9127ZM185.055 25.6622L183.978 25.6204C183.988 24.5889 184.141 23.6365 184.44 22.763C184.738 21.8802 185.157 21.1136 185.698 20.4631C186.238 19.8126 186.881 19.3108 187.627 18.9577C188.382 18.5953 189.216 18.4141 190.129 18.4141C190.874 18.4141 191.545 18.5163 192.142 18.7208C192.738 18.9159 193.246 19.2319 193.665 19.6686C194.094 20.1053 194.42 20.6722 194.644 21.3691C194.868 22.0568 194.979 22.8977 194.979 23.892V33.7745H192.379V23.8641C192.379 23.0743 192.263 22.4424 192.03 21.9685C191.797 21.4853 191.457 21.1368 191.009 20.9231C190.562 20.7001 190.012 20.5885 189.36 20.5885C188.717 20.5885 188.13 20.7233 187.599 20.9928C187.077 21.2622 186.625 21.6339 186.243 22.1079C185.87 22.5818 185.577 23.1254 185.362 23.7387C185.157 24.3427 185.055 24.9839 185.055 25.6622Z" fill="#222222"></path>
        <path d="M207.582 30.8474V12.3647H210.182V33.7745H207.805L207.582 30.8474ZM197.405 26.401V26.1083C197.405 24.956 197.545 23.9106 197.825 22.9721C198.114 22.0242 198.519 21.2111 199.041 20.5328C199.572 19.8544 200.201 19.3341 200.928 18.9717C201.664 18.6 202.484 18.4141 203.388 18.4141C204.339 18.4141 205.168 18.5814 205.876 18.9159C206.594 19.2411 207.2 19.7197 207.694 20.3516C208.197 20.9742 208.593 21.7269 208.882 22.6097C209.171 23.4924 209.371 24.4914 209.483 25.6065V26.8888C209.38 27.9946 209.18 28.9889 208.882 29.8717C208.593 30.7545 208.197 31.5072 207.694 32.1297C207.2 32.7523 206.594 33.2309 205.876 33.5654C205.159 33.8907 204.32 34.0533 203.36 34.0533C202.475 34.0533 201.664 33.8628 200.928 33.4818C200.201 33.1008 199.572 32.5665 199.041 31.8789C198.519 31.1912 198.114 30.3828 197.825 29.4535C197.545 28.515 197.405 27.4975 197.405 26.401ZM200.005 26.1083V26.401C200.005 27.1537 200.08 27.8599 200.229 28.5196C200.387 29.1794 200.63 29.7602 200.956 30.262C201.282 30.7638 201.697 31.1587 202.2 31.4468C202.703 31.7255 203.304 31.8649 204.003 31.8649C204.861 31.8649 205.564 31.6837 206.114 31.3213C206.673 30.9589 207.12 30.4803 207.456 29.8856C207.791 29.2909 208.052 28.6451 208.239 27.9482V24.5889C208.127 24.0779 207.964 23.5854 207.749 23.1114C207.544 22.6282 207.274 22.2008 206.939 21.8291C206.613 21.4481 206.207 21.1461 205.723 20.9231C205.247 20.7001 204.683 20.5885 204.031 20.5885C203.323 20.5885 202.713 20.7372 202.2 21.0346C201.697 21.3226 201.282 21.7222 200.956 22.2333C200.63 22.7351 200.387 23.3205 200.229 23.9896C200.08 24.6493 200.005 25.3556 200.005 26.1083Z" fill="#222222"></path>
        <path d="M76.2653 22.2393V34.1585H72.4628V22.2393H69.3398V18.8796H79.4045V22.2393H76.2815H76.2653Z" fill="#222222"></path>
        <path d="M93.6346 34.159H88.7666L85.045 28.2838V34.159H81.1406V18.8801H87.2215C88.0522 18.8801 88.7832 18.9983 89.4146 19.2515C90.0459 19.5048 90.561 19.8424 90.9597 20.2814C91.3585 20.7203 91.6741 21.2099 91.8735 21.784C92.0729 22.358 92.1892 22.9658 92.1892 23.6073C92.1892 24.7722 91.9067 25.7176 91.3585 26.4267C90.8102 27.1358 89.9961 27.6423 88.9162 27.8955L93.6346 34.159ZM85.045 25.7176H85.776C86.5403 25.7176 87.1384 25.5488 87.5538 25.228C87.9691 24.9073 88.1685 24.4346 88.1685 23.8268C88.1685 23.219 87.9691 22.7463 87.5538 22.4255C87.1384 22.1047 86.5569 21.9359 85.776 21.9359H85.045V25.7008V25.7176Z" fill="#222222"></path>
        <path d="M104.215 31.5084H98.6681L97.7766 34.159H93.6328L99.3284 18.8801H103.571L109.25 34.159H105.107L104.215 31.5084ZM103.192 28.4864L101.442 23.4047L99.6916 28.4864H103.175H103.192Z" fill="#222222"></path>
        <path d="M118.974 22.2435H114.423V24.7956H118.572V28.159H114.423V34.159H110.645V18.8801H118.974V22.2435Z" fill="#222222"></path>
        <path d="M129.727 22.2435H124.987V24.7956H129.308V28.159H124.987V34.159H121.051V18.8801H129.727V22.2435Z" fill="#222222"></path>
        <path d="M135.634 18.8801V34.159H131.816V18.8801H135.634Z" fill="#222222"></path>
        <path d="M149.016 24.0868C148.145 23.0095 147.048 22.4546 145.757 22.4546C145.192 22.4546 144.66 22.5525 144.176 22.7647C143.692 22.9769 143.272 23.2543 142.934 23.6134C142.579 23.9725 142.304 24.3969 142.111 24.9029C141.917 25.3925 141.804 25.9312 141.804 26.5024C141.804 27.0737 141.901 27.6286 142.111 28.1346C142.321 28.6406 142.595 29.065 142.95 29.4241C143.305 29.7831 143.724 30.0769 144.192 30.2891C144.66 30.5013 145.192 30.5992 145.741 30.5992C146.951 30.5992 148.048 30.0769 149.016 29.0323V33.5698L148.629 33.7004C148.048 33.9126 147.499 34.0595 146.999 34.1574C146.499 34.2554 145.999 34.3043 145.515 34.3043C144.515 34.3043 143.547 34.1085 142.627 33.7331C141.707 33.3413 140.885 32.8027 140.191 32.1009C139.481 31.399 138.916 30.5666 138.497 29.6199C138.077 28.6569 137.852 27.6123 137.852 26.4698C137.852 25.3272 138.061 24.299 138.481 23.3523C138.9 22.4056 139.465 21.5895 140.159 20.904C140.869 20.2185 141.675 19.6798 142.611 19.3044C143.547 18.9127 144.515 18.7332 145.531 18.7332C146.112 18.7332 146.677 18.7984 147.241 18.9127C147.806 19.0433 148.387 19.2228 149.016 19.484V24.0868Z" fill="#222222"></path>
    </g>
    <defs>
        <filter id="filter0_dd_10350_8922" x="25.137" y="13.0921" width="8.424" height="24.1955" filterUnits="userSpaceOnUse" color-interpolation-filters="sRGB">
            <feFlood flood-opacity="0" result="BackgroundImageFix"></feFlood>
            <feColorMatrix in="SourceAlpha" type="matrix" values="0 0 0 0 0 0 0 0 0 0 0 0 0 0 0 0 0 0 127 0" result="hardAlpha"></feColorMatrix>
            <feOffset dx="0.804742" dy="0.804742"></feOffset>
            <feGaussianBlur stdDeviation="0.241423"></feGaussianBlur>
            <feComposite in2="hardAlpha" operator="out"></feComposite>
            <feColorMatrix type="matrix" values="0 0 0 0 0.0901961 0 0 0 0 0.235294 0 0 0 0 0.298039 0 0 0 0.1 0"></feColorMatrix>
            <feBlend mode="normal" in2="BackgroundImageFix" result="effect1_dropShadow_10350_8922"></feBlend>
            <feColorMatrix in="SourceAlpha" type="matrix" values="0 0 0 0 0 0 0 0 0 0 0 0 0 0 0 0 0 0 127 0" result="hardAlpha"></feColorMatrix>
            <feOffset dx="-0.804742" dy="-0.804742"></feOffset>
            <feGaussianBlur stdDeviation="0.261541"></feGaussianBlur>
            <feComposite in2="hardAlpha" operator="out"></feComposite>
            <feColorMatrix type="matrix" values="0 0 0 0 0.0900562 0 0 0 0 0.236327 0 0 0 0 0.299177 0 0 0 0.03 0"></feColorMatrix>
            <feBlend mode="normal" in2="effect1_dropShadow_10350_8922" result="effect2_dropShadow_10350_8922"></feBlend>
            <feBlend mode="normal" in="SourceGraphic" in2="effect2_dropShadow_10350_8922" result="shape"></feBlend>
        </filter>
        <filter id="filter1_dd_10350_8922" x="14.3519" y="16.5787" width="8.09197" height="17.0575" filterUnits="userSpaceOnUse" color-interpolation-filters="sRGB">
            <feFlood flood-opacity="0" result="BackgroundImageFix"></feFlood>
            <feColorMatrix in="SourceAlpha" type="matrix" values="0 0 0 0 0 0 0 0 0 0 0 0 0 0 0 0 0 0 127 0" result="hardAlpha"></feColorMatrix>
            <feOffset dx="0.804742" dy="0.804742"></feOffset>
            <feGaussianBlur stdDeviation="0.241423"></feGaussianBlur>
            <feComposite in2="hardAlpha" operator="out"></feComposite>
            <feColorMatrix type="matrix" values="0 0 0 0 0.0901961 0 0 0 0 0.235294 0 0 0 0 0.298039 0 0 0 0.1 0"></feColorMatrix>
            <feBlend mode="normal" in2="BackgroundImageFix" result="effect1_dropShadow_10350_8922"></feBlend>
            <feColorMatrix in="SourceAlpha" type="matrix" values="0 0 0 0 0 0 0 0 0 0 0 0 0 0 0 0 0 0 127 0" result="hardAlpha"></feColorMatrix>
            <feOffset dx="-0.804742" dy="-0.804742"></feOffset>
            <feGaussianBlur stdDeviation="0.261541"></feGaussianBlur>
            <feComposite in2="hardAlpha" operator="out"></feComposite>
            <feColorMatrix type="matrix" values="0 0 0 0 0.0900562 0 0 0 0 0.236327 0 0 0 0 0.299177 0 0 0 0.03 0"></feColorMatrix>
            <feBlend mode="normal" in2="effect1_dropShadow_10350_8922" result="effect2_dropShadow_10350_8922"></feBlend>
            <feBlend mode="normal" in="SourceGraphic" in2="effect2_dropShadow_10350_8922" result="shape"></feBlend>
        </filter>
        <filter id="filter2_dd_10350_8922" x="36.262" y="16.5787" width="8.09197" height="17.0575" filterUnits="userSpaceOnUse" color-interpolation-filters="sRGB">
            <feFlood flood-opacity="0" result="BackgroundImageFix"></feFlood>
            <feColorMatrix in="SourceAlpha" type="matrix" values="0 0 0 0 0 0 0 0 0 0 0 0 0 0 0 0 0 0 127 0" result="hardAlpha"></feColorMatrix>
            <feOffset dx="0.804742" dy="0.804742"></feOffset>
            <feGaussianBlur stdDeviation="0.241423"></feGaussianBlur>
            <feComposite in2="hardAlpha" operator="out"></feComposite>
            <feColorMatrix type="matrix" values="0 0 0 0 0.0901961 0 0 0 0 0.235294 0 0 0 0 0.298039 0 0 0 0.1 0"></feColorMatrix>
            <feBlend mode="normal" in2="BackgroundImageFix" result="effect1_dropShadow_10350_8922"></feBlend>
            <feColorMatrix in="SourceAlpha" type="matrix" values="0 0 0 0 0 0 0 0 0 0 0 0 0 0 0 0 0 0 127 0" result="hardAlpha"></feColorMatrix>
            <feOffset dx="-0.804742" dy="-0.804742"></feOffset>
            <feGaussianBlur stdDeviation="0.261541"></feGaussianBlur>
            <feComposite in2="hardAlpha" operator="out"></feComposite>
            <feColorMatrix type="matrix" values="0 0 0 0 0.0900562 0 0 0 0 0.236327 0 0 0 0 0.299177 0 0 0 0.03 0"></feColorMatrix>
            <feBlend mode="normal" in2="effect1_dropShadow_10350_8922" result="effect2_dropShadow_10350_8922"></feBlend>
            <feBlend mode="normal" in="SourceGraphic" in2="effect2_dropShadow_10350_8922" result="shape"></feBlend>
        </filter>
        <clipPath id="clip0_10350_8922">
            <rect width="210.18" height="48.0152" fill="white"></rect>
        </clipPath>
    </defs>
</svg>